<mxfile host="65bd71144e">
    <diagram id="1CpEiyGKkiCDTp_yD0xL" name="PÃ¡gina-1">
        <mxGraphModel dx="372" dy="405" grid="1" gridSize="10" guides="1" tooltips="1" connect="1" arrows="1" fold="1" page="1" pageScale="1" pageWidth="1654" pageHeight="1169" math="0" shadow="0">
            <root>
                <mxCell id="0"/>
                <mxCell id="1" parent="0"/>
                <mxCell id="4" value="" style="edgeStyle=none;html=1;" edge="1" parent="1" source="2" target="3">
                    <mxGeometry relative="1" as="geometry"/>
                </mxCell>
                <mxCell id="6" value="" style="edgeStyle=none;html=1;" edge="1" parent="1" source="2" target="5">
                    <mxGeometry relative="1" as="geometry"/>
                </mxCell>
                <mxCell id="2" value="twd - API" style="rounded=0;whiteSpace=wrap;html=1;" vertex="1" parent="1">
                    <mxGeometry x="140" y="180" width="120" height="60" as="geometry"/>
                </mxCell>
                <mxCell id="3" value="Register user on mailing list" style="ellipse;whiteSpace=wrap;html=1;" vertex="1" parent="1">
                    <mxGeometry x="140" y="50" width="120" height="80" as="geometry"/>
                </mxCell>
                <mxCell id="5" value="Send e-mail user with bonus" style="ellipse;whiteSpace=wrap;html=1;" vertex="1" parent="1">
                    <mxGeometry x="310" y="175" width="120" height="70" as="geometry"/>
                </mxCell>
                <mxCell id="7" value="" style="rounded=0;whiteSpace=wrap;html=1;fillColor=#9999FF;" vertex="1" parent="1">
                    <mxGeometry x="150" y="530" width="280" height="150" as="geometry"/>
                </mxCell>
                <mxCell id="8" value="API" style="rounded=0;whiteSpace=wrap;html=1;fillColor=#FFFFFF;fontColor=#000000;" vertex="1" parent="1">
                    <mxGeometry x="230" y="570" width="120" height="60" as="geometry"/>
                </mxCell>
            </root>
        </mxGraphModel>
    </diagram>
</mxfile>